<svg xmlns="http://www.w3.org/2000/svg" xmlns:xlink="http://www.w3.org/1999/xlink" width="375" zoomAndPan="magnify" viewBox="0 0 375 375" height="375" preserveAspectRatio="xMidYMid meet" version="1.0"><defs><g/><clipPath id="80da0397c7"><path d="M 78.570312 65.941406 L 296.429688 65.941406 L 296.429688 283.804688 L 78.570312 283.804688 Z M 78.570312 65.941406 " clip-rule="nonzero"/></clipPath><clipPath id="c1948b2e35"><path d="M 187.5 65.941406 C 127.339844 65.941406 78.570312 114.714844 78.570312 174.875 C 78.570312 235.035156 127.339844 283.804688 187.5 283.804688 C 247.660156 283.804688 296.429688 235.035156 296.429688 174.875 C 296.429688 114.714844 247.660156 65.941406 187.5 65.941406 Z M 187.5 65.941406 " clip-rule="nonzero"/></clipPath></defs><g clip-path="url(#80da0397c7)"><g clip-path="url(#c1948b2e35)"><path fill="#9fc7aa" d="M 78.570312 65.941406 L 296.429688 65.941406 L 296.429688 283.804688 L 78.570312 283.804688 Z M 78.570312 65.941406 " fill-opacity="1" fill-rule="nonzero"/></g></g><g fill="#f8f7f0" fill-opacity="1"><g transform="translate(122.855851, 239.544152)"><g><path d="M 9.671875 0 L 38.222656 0 L 38.222656 -124.105469 C 34.539062 -107.527344 22.335938 -101.773438 9.671875 -100.160156 Z M 9.671875 0 "/></g></g></g><g fill="#f8f7f0" fill-opacity="1"><g transform="translate(147.721874, 239.544152)"><g/></g></g><g fill="#f8f7f0" fill-opacity="1"><g transform="translate(174.4299, 239.544152)"><g><path d="M 9.671875 0 L 38.222656 0 L 38.222656 -121.34375 L 9.671875 -121.34375 Z M 53.1875 -48.8125 C 53.1875 -48.8125 92.332031 -45.589844 92.332031 -84.964844 C 92.332031 -121.34375 48.8125 -121.34375 48.8125 -121.34375 C 48.8125 -121.34375 68.386719 -120.191406 68.386719 -85.195312 C 68.386719 -50.65625 53.1875 -48.8125 53.1875 -48.8125 Z M 53.1875 -48.8125 "/></g></g></g></svg>