<svg xmlns="http://www.w3.org/2000/svg" xmlns:xlink="http://www.w3.org/1999/xlink" width="500" zoomAndPan="magnify" viewBox="0 0 375 374.999991" height="500" preserveAspectRatio="xMidYMid meet" version="1.0"><defs><g/><clipPath id="ff71392423"><path d="M 90.667969 131.25 L 203.167969 131.25 L 203.167969 243.75 L 90.667969 243.75 Z M 90.667969 131.25 " clip-rule="nonzero"/></clipPath><clipPath id="47bdf48984"><path d="M 146.917969 131.25 C 115.851562 131.25 90.667969 156.433594 90.667969 187.5 C 90.667969 218.566406 115.851562 243.75 146.917969 243.75 C 177.984375 243.75 203.167969 218.566406 203.167969 187.5 C 203.167969 156.433594 177.984375 131.25 146.917969 131.25 Z M 146.917969 131.25 " clip-rule="nonzero"/></clipPath></defs><g clip-path="url(#ff71392423)"><g clip-path="url(#47bdf48984)"><path fill="#9fc7aa" d="M 90.667969 131.25 L 203.167969 131.25 L 203.167969 243.75 L 90.667969 243.75 Z M 90.667969 131.25 " fill-opacity="1" fill-rule="nonzero"/></g></g><g fill="#000000" fill-opacity="1"><g transform="translate(116.948543, 198.743541)"><g><path d="M 30.109375 -23.015625 C 32.566406 -20.335938 33.796875 -17.050781 33.796875 -13.15625 C 33.796875 -9.269531 32.566406 -5.976562 30.109375 -3.28125 C 27.648438 -0.582031 24.523438 0.765625 20.734375 0.765625 C 17.253906 0.765625 14.390625 -0.328125 12.140625 -2.515625 L 12.140625 13.3125 L 3.078125 13.3125 L 3.078125 -26.265625 L 12.03125 -26.265625 L 12.03125 -23.296875 L 12.140625 -23.296875 C 14.390625 -25.785156 17.253906 -27.03125 20.734375 -27.03125 C 24.523438 -27.03125 27.648438 -25.691406 30.109375 -23.015625 Z M 22.40625 -8.703125 C 23.582031 -9.867188 24.171875 -11.351562 24.171875 -13.15625 C 24.171875 -14.96875 23.601562 -16.441406 22.46875 -17.578125 C 21.34375 -18.722656 19.863281 -19.296875 18.03125 -19.296875 C 16.25 -19.296875 14.785156 -18.71875 13.640625 -17.5625 C 12.503906 -16.40625 11.9375 -14.9375 11.9375 -13.15625 C 11.9375 -11.351562 12.523438 -9.867188 13.703125 -8.703125 C 14.878906 -7.546875 16.320312 -6.96875 18.03125 -6.96875 C 19.769531 -6.96875 21.226562 -7.546875 22.40625 -8.703125 Z M 22.40625 -8.703125 "/></g></g></g><g fill="#000000" fill-opacity="1"><g transform="translate(147.1035, 198.743541)"><g><path d="M 3.078125 0 L 3.078125 -26.265625 L 12.140625 -26.265625 L 12.140625 -22.484375 L 12.234375 -22.484375 C 12.304688 -22.617188 12.414062 -22.785156 12.5625 -22.984375 C 12.71875 -23.191406 13.050781 -23.550781 13.5625 -24.0625 C 14.082031 -24.570312 14.628906 -25.03125 15.203125 -25.4375 C 15.785156 -25.851562 16.535156 -26.222656 17.453125 -26.546875 C 18.378906 -26.867188 19.320312 -27.03125 20.28125 -27.03125 C 21.269531 -27.03125 22.238281 -26.894531 23.1875 -26.625 C 24.144531 -26.351562 24.847656 -26.082031 25.296875 -25.8125 L 26.015625 -25.390625 L 22.21875 -17.71875 C 21.09375 -18.675781 19.523438 -19.15625 17.515625 -19.15625 C 16.421875 -19.15625 15.476562 -18.914062 14.6875 -18.4375 C 13.90625 -17.957031 13.351562 -17.375 13.03125 -16.6875 C 12.707031 -16.007812 12.476562 -15.429688 12.34375 -14.953125 C 12.207031 -14.472656 12.140625 -14.097656 12.140625 -13.828125 L 12.140625 0 Z M 3.078125 0 "/></g></g></g><g fill="#000000" fill-opacity="1"><g transform="translate(167.786595, 198.743541)"><g><path d="M 3.9375 -40.90625 C 5 -41.96875 6.265625 -42.5 7.734375 -42.5 C 9.203125 -42.5 10.460938 -41.96875 11.515625 -40.90625 C 12.578125 -39.851562 13.109375 -38.59375 13.109375 -37.125 C 13.109375 -35.65625 12.578125 -34.390625 11.515625 -33.328125 C 10.460938 -32.273438 9.203125 -31.75 7.734375 -31.75 C 6.265625 -31.75 5 -32.273438 3.9375 -33.328125 C 2.882812 -34.390625 2.359375 -35.65625 2.359375 -37.125 C 2.359375 -38.59375 2.882812 -39.851562 3.9375 -40.90625 Z M 3.078125 -26.265625 L 3.078125 0 L 12.140625 0 L 12.140625 -26.265625 Z M 3.078125 -26.265625 "/></g></g></g><g fill="#000000" fill-opacity="1"><g transform="translate(178.43464, 198.743541)"><g><path d="M 3.078125 0 L 3.078125 -26.265625 L 12.140625 -26.265625 L 12.140625 -23.5 L 12.234375 -23.5 C 14.585938 -25.851562 17.097656 -27.03125 19.765625 -27.03125 C 21.671875 -27.03125 23.460938 -26.640625 25.140625 -25.859375 C 26.816406 -25.078125 28.082031 -23.863281 28.9375 -22.21875 C 31.59375 -25.425781 34.492188 -27.03125 37.640625 -27.03125 C 40.429688 -27.03125 42.832031 -26.242188 44.84375 -24.671875 C 46.863281 -23.109375 47.875 -20.65625 47.875 -17.3125 L 47.875 0 L 38.8125 0 L 38.8125 -14.84375 C 38.8125 -16.25 38.425781 -17.421875 37.65625 -18.359375 C 36.882812 -19.296875 35.734375 -19.765625 34.203125 -19.765625 C 32.867188 -19.765625 31.851562 -19.363281 31.15625 -18.5625 C 30.457031 -17.757812 30.070312 -16.796875 30 -15.671875 L 30 0 L 20.9375 0 L 20.9375 -14.84375 C 20.9375 -16.25 20.550781 -17.421875 19.78125 -18.359375 C 19.019531 -19.296875 17.867188 -19.765625 16.328125 -19.765625 C 14.929688 -19.765625 13.882812 -19.328125 13.1875 -18.453125 C 12.488281 -17.585938 12.140625 -16.554688 12.140625 -15.359375 L 12.140625 0 Z M 3.078125 0 "/></g></g></g><g fill="#000000" fill-opacity="1"><g transform="translate(224.051766, 198.743541)"><g><path d="M 4.859375 -3.25 C 2.398438 -5.925781 1.171875 -9.207031 1.171875 -13.09375 C 1.171875 -16.988281 2.398438 -20.285156 4.859375 -22.984375 C 7.316406 -25.679688 10.441406 -27.03125 14.234375 -27.03125 C 17.710938 -27.03125 20.582031 -25.941406 22.84375 -23.765625 L 22.84375 -26.265625 L 31.90625 -26.265625 L 31.90625 0 L 22.9375 0 L 22.9375 -2.96875 L 22.84375 -2.96875 C 20.582031 -0.476562 17.710938 0.765625 14.234375 0.765625 C 10.441406 0.765625 7.316406 -0.570312 4.859375 -3.25 Z M 12.5625 -17.5625 C 11.382812 -16.40625 10.796875 -14.921875 10.796875 -13.109375 C 10.796875 -11.296875 11.359375 -9.816406 12.484375 -8.671875 C 13.617188 -7.535156 15.109375 -6.96875 16.953125 -6.96875 C 18.722656 -6.96875 20.179688 -7.546875 21.328125 -8.703125 C 22.472656 -9.867188 23.046875 -11.335938 23.046875 -13.109375 C 23.046875 -14.921875 22.457031 -16.40625 21.28125 -17.5625 C 20.101562 -18.71875 18.660156 -19.296875 16.953125 -19.296875 C 15.210938 -19.296875 13.75 -18.71875 12.5625 -17.5625 Z M 12.5625 -17.5625 "/></g></g></g><g fill="#000000" fill-opacity="1"><g transform="translate(254.206728, 198.743541)"><g><path d="M 8.90625 -10.953125 C 10.539062 -10.953125 11.929688 -10.378906 13.078125 -9.234375 C 14.222656 -8.097656 14.796875 -6.707031 14.796875 -5.0625 C 14.796875 -3.457031 14.222656 -2.082031 13.078125 -0.9375 C 11.929688 0.195312 10.539062 0.765625 8.90625 0.765625 C 7.300781 0.765625 5.925781 0.195312 4.78125 -0.9375 C 3.644531 -2.082031 3.078125 -3.457031 3.078125 -5.0625 C 3.078125 -6.707031 3.644531 -8.097656 4.78125 -9.234375 C 5.925781 -10.378906 7.300781 -10.953125 8.90625 -10.953125 Z M 8.90625 -10.953125 "/></g></g></g><g fill="#000000" fill-opacity="1"><g transform="translate(171.944949, 212.652819)"><g><path d="M 3.4375 -5.5 C 3.90625 -5.5 4.328125 -5.378906 4.703125 -5.140625 C 5.085938 -4.898438 5.390625 -4.566406 5.609375 -4.140625 C 5.828125 -3.710938 5.9375 -3.234375 5.9375 -2.703125 C 5.9375 -2.160156 5.828125 -1.675781 5.609375 -1.25 C 5.390625 -0.832031 5.085938 -0.503906 4.703125 -0.265625 C 4.328125 -0.0234375 3.914062 0.09375 3.46875 0.09375 C 3.101562 0.09375 2.765625 0.015625 2.453125 -0.140625 C 2.148438 -0.296875 1.90625 -0.488281 1.71875 -0.71875 L 1.71875 1.5625 C 1.71875 1.707031 1.671875 1.828125 1.578125 1.921875 C 1.484375 2.015625 1.363281 2.0625 1.21875 2.0625 C 1.082031 2.0625 0.96875 2.015625 0.875 1.921875 C 0.78125 1.828125 0.734375 1.707031 0.734375 1.5625 L 0.734375 -4.921875 C 0.734375 -5.066406 0.773438 -5.1875 0.859375 -5.28125 C 0.953125 -5.375 1.070312 -5.421875 1.21875 -5.421875 C 1.363281 -5.421875 1.484375 -5.375 1.578125 -5.28125 C 1.671875 -5.1875 1.71875 -5.066406 1.71875 -4.921875 L 1.71875 -4.625 C 1.875 -4.863281 2.109375 -5.066406 2.421875 -5.234375 C 2.742188 -5.410156 3.082031 -5.5 3.4375 -5.5 Z M 3.328125 -0.8125 C 3.648438 -0.8125 3.9375 -0.894531 4.1875 -1.0625 C 4.4375 -1.226562 4.628906 -1.453125 4.765625 -1.734375 C 4.910156 -2.023438 4.984375 -2.347656 4.984375 -2.703125 C 4.984375 -3.054688 4.910156 -3.375 4.765625 -3.65625 C 4.628906 -3.945312 4.4375 -4.175781 4.1875 -4.34375 C 3.9375 -4.507812 3.648438 -4.59375 3.328125 -4.59375 C 3.003906 -4.59375 2.710938 -4.507812 2.453125 -4.34375 C 2.203125 -4.1875 2.003906 -3.960938 1.859375 -3.671875 C 1.722656 -3.378906 1.65625 -3.054688 1.65625 -2.703125 C 1.65625 -2.347656 1.722656 -2.023438 1.859375 -1.734375 C 2.003906 -1.441406 2.203125 -1.210938 2.453125 -1.046875 C 2.710938 -0.890625 3.003906 -0.8125 3.328125 -0.8125 Z M 3.328125 -0.8125 "/></g></g></g><g fill="#000000" fill-opacity="1"><g transform="translate(184.989845, 212.652819)"><g><path d="M 5.109375 -5.46875 C 5.253906 -5.46875 5.375 -5.421875 5.46875 -5.328125 C 5.5625 -5.242188 5.609375 -5.125 5.609375 -4.96875 L 5.609375 -0.5 C 5.609375 -0.351562 5.5625 -0.234375 5.46875 -0.140625 C 5.375 -0.046875 5.253906 0 5.109375 0 C 4.972656 0 4.859375 -0.046875 4.765625 -0.140625 C 4.671875 -0.234375 4.625 -0.351562 4.625 -0.5 L 4.625 -0.765625 C 4.445312 -0.523438 4.203125 -0.316406 3.890625 -0.140625 C 3.585938 0.0234375 3.253906 0.109375 2.890625 0.109375 C 2.429688 0.109375 2.007812 -0.0078125 1.625 -0.25 C 1.238281 -0.5 0.9375 -0.835938 0.71875 -1.265625 C 0.507812 -1.691406 0.40625 -2.175781 0.40625 -2.71875 C 0.40625 -3.25 0.507812 -3.726562 0.71875 -4.15625 C 0.9375 -4.59375 1.234375 -4.929688 1.609375 -5.171875 C 1.992188 -5.410156 2.410156 -5.53125 2.859375 -5.53125 C 3.222656 -5.53125 3.5625 -5.453125 3.875 -5.296875 C 4.195312 -5.148438 4.445312 -4.957031 4.625 -4.71875 L 4.625 -4.96875 C 4.625 -5.113281 4.671875 -5.234375 4.765625 -5.328125 C 4.859375 -5.421875 4.972656 -5.46875 5.109375 -5.46875 Z M 3.015625 -0.796875 C 3.335938 -0.796875 3.625 -0.878906 3.875 -1.046875 C 4.125 -1.210938 4.316406 -1.441406 4.453125 -1.734375 C 4.597656 -2.023438 4.671875 -2.351562 4.671875 -2.71875 C 4.671875 -3.070312 4.597656 -3.390625 4.453125 -3.671875 C 4.316406 -3.960938 4.125 -4.191406 3.875 -4.359375 C 3.625 -4.535156 3.335938 -4.625 3.015625 -4.625 C 2.691406 -4.625 2.40625 -4.539062 2.15625 -4.375 C 1.90625 -4.207031 1.707031 -3.976562 1.5625 -3.6875 C 1.414062 -3.40625 1.34375 -3.082031 1.34375 -2.71875 C 1.34375 -2.351562 1.414062 -2.023438 1.5625 -1.734375 C 1.707031 -1.441406 1.90625 -1.210938 2.15625 -1.046875 C 2.40625 -0.878906 2.691406 -0.796875 3.015625 -0.796875 Z M 3.015625 -0.796875 "/></g></g></g><g fill="#000000" fill-opacity="1"><g transform="translate(198.034742, 212.652819)"><g><path d="M 5.25 -5.46875 C 5.394531 -5.46875 5.515625 -5.421875 5.609375 -5.328125 C 5.703125 -5.242188 5.75 -5.125 5.75 -4.96875 L 5.75 -0.4375 C 5.75 0.125 5.628906 0.59375 5.390625 0.96875 C 5.148438 1.34375 4.828125 1.617188 4.421875 1.796875 C 4.015625 1.972656 3.554688 2.0625 3.046875 2.0625 C 2.773438 2.0625 2.453125 2.015625 2.078125 1.921875 C 1.710938 1.828125 1.476562 1.726562 1.375 1.625 C 1.164062 1.507812 1.0625 1.367188 1.0625 1.203125 C 1.0625 1.160156 1.078125 1.109375 1.109375 1.046875 C 1.179688 0.867188 1.304688 0.78125 1.484375 0.78125 C 1.578125 0.78125 1.675781 0.800781 1.78125 0.84375 C 2.320312 1.0625 2.75 1.171875 3.0625 1.171875 C 3.613281 1.171875 4.035156 1.035156 4.328125 0.765625 C 4.617188 0.503906 4.765625 0.144531 4.765625 -0.3125 L 4.765625 -0.875 C 4.617188 -0.601562 4.375 -0.367188 4.03125 -0.171875 C 3.695312 0.015625 3.335938 0.109375 2.953125 0.109375 C 2.484375 0.109375 2.050781 -0.0078125 1.65625 -0.25 C 1.269531 -0.5 0.960938 -0.835938 0.734375 -1.265625 C 0.515625 -1.691406 0.40625 -2.175781 0.40625 -2.71875 C 0.40625 -3.25 0.515625 -3.726562 0.734375 -4.15625 C 0.960938 -4.59375 1.269531 -4.929688 1.65625 -5.171875 C 2.039062 -5.410156 2.46875 -5.53125 2.9375 -5.53125 C 3.3125 -5.53125 3.660156 -5.441406 3.984375 -5.265625 C 4.316406 -5.097656 4.578125 -4.890625 4.765625 -4.640625 L 4.765625 -4.96875 C 4.765625 -5.113281 4.804688 -5.234375 4.890625 -5.328125 C 4.984375 -5.421875 5.101562 -5.46875 5.25 -5.46875 Z M 3.078125 -0.796875 C 3.410156 -0.796875 3.707031 -0.878906 3.96875 -1.046875 C 4.226562 -1.210938 4.429688 -1.441406 4.578125 -1.734375 C 4.734375 -2.023438 4.8125 -2.351562 4.8125 -2.71875 C 4.8125 -3.082031 4.734375 -3.40625 4.578125 -3.6875 C 4.429688 -3.976562 4.226562 -4.207031 3.96875 -4.375 C 3.707031 -4.539062 3.410156 -4.625 3.078125 -4.625 C 2.742188 -4.625 2.445312 -4.539062 2.1875 -4.375 C 1.925781 -4.207031 1.71875 -3.976562 1.5625 -3.6875 C 1.414062 -3.394531 1.34375 -3.070312 1.34375 -2.71875 C 1.34375 -2.351562 1.414062 -2.023438 1.5625 -1.734375 C 1.71875 -1.441406 1.925781 -1.210938 2.1875 -1.046875 C 2.445312 -0.878906 2.742188 -0.796875 3.078125 -0.796875 Z M 3.078125 -0.796875 "/></g></g></g><g fill="#000000" fill-opacity="1"><g transform="translate(211.213545, 212.652819)"><g><path d="M 5.46875 -2.90625 C 5.46875 -2.78125 5.414062 -2.675781 5.3125 -2.59375 C 5.21875 -2.507812 5.109375 -2.46875 4.984375 -2.46875 L 1.34375 -2.46875 C 1.394531 -1.96875 1.585938 -1.5625 1.921875 -1.25 C 2.253906 -0.945312 2.660156 -0.796875 3.140625 -0.796875 C 3.472656 -0.796875 3.742188 -0.84375 3.953125 -0.9375 C 4.160156 -1.039062 4.34375 -1.164062 4.5 -1.3125 C 4.601562 -1.375 4.703125 -1.40625 4.796875 -1.40625 C 4.910156 -1.40625 5.003906 -1.363281 5.078125 -1.28125 C 5.160156 -1.207031 5.203125 -1.113281 5.203125 -1 C 5.203125 -0.851562 5.132812 -0.722656 5 -0.609375 C 4.800781 -0.410156 4.535156 -0.238281 4.203125 -0.09375 C 3.878906 0.0390625 3.546875 0.109375 3.203125 0.109375 C 2.640625 0.109375 2.144531 -0.00390625 1.71875 -0.234375 C 1.300781 -0.472656 0.976562 -0.800781 0.75 -1.21875 C 0.519531 -1.644531 0.40625 -2.125 0.40625 -2.65625 C 0.40625 -3.226562 0.519531 -3.734375 0.75 -4.171875 C 0.988281 -4.609375 1.300781 -4.941406 1.6875 -5.171875 C 2.082031 -5.410156 2.503906 -5.53125 2.953125 -5.53125 C 3.390625 -5.53125 3.800781 -5.414062 4.1875 -5.1875 C 4.570312 -4.957031 4.878906 -4.644531 5.109375 -4.25 C 5.347656 -3.851562 5.46875 -3.40625 5.46875 -2.90625 Z M 2.953125 -4.625 C 2.566406 -4.625 2.234375 -4.515625 1.953125 -4.296875 C 1.671875 -4.078125 1.484375 -3.742188 1.390625 -3.296875 L 4.4375 -3.296875 L 4.4375 -3.375 C 4.40625 -3.738281 4.238281 -4.035156 3.9375 -4.265625 C 3.644531 -4.503906 3.316406 -4.625 2.953125 -4.625 Z M 2.953125 -4.625 "/></g></g></g></svg>