<svg xmlns="http://www.w3.org/2000/svg" xmlns:xlink="http://www.w3.org/1999/xlink" width="659" zoomAndPan="magnify" viewBox="0 0 494.25 226.499993" height="302" preserveAspectRatio="xMidYMid meet" version="1.0"><defs><g/><clipPath id="46fb5a3743"><path d="M 38.367188 0.292969 L 263.929688 0.292969 L 263.929688 225.855469 L 38.367188 225.855469 Z M 38.367188 0.292969 " clip-rule="nonzero"/></clipPath><clipPath id="b7c55929e7"><path d="M 151.148438 0.292969 C 88.859375 0.292969 38.367188 50.789062 38.367188 113.074219 C 38.367188 175.363281 88.859375 225.855469 151.148438 225.855469 C 213.433594 225.855469 263.929688 175.363281 263.929688 113.074219 C 263.929688 50.789062 213.433594 0.292969 151.148438 0.292969 Z M 151.148438 0.292969 " clip-rule="nonzero"/></clipPath></defs><g clip-path="url(#46fb5a3743)"><g clip-path="url(#b7c55929e7)"><path fill="#9fc7aa" d="M 38.367188 0.292969 L 263.929688 0.292969 L 263.929688 225.855469 L 38.367188 225.855469 Z M 38.367188 0.292969 " fill-opacity="1" fill-rule="nonzero"/></g></g><g fill="#000000" fill-opacity="1"><g transform="translate(91.059358, 135.617766)"><g><path d="M 60.375 -46.140625 C 65.300781 -40.773438 67.765625 -34.191406 67.765625 -26.390625 C 67.765625 -18.585938 65.300781 -11.976562 60.375 -6.5625 C 55.445312 -1.15625 49.179688 1.546875 41.578125 1.546875 C 34.597656 1.546875 28.847656 -0.644531 24.328125 -5.03125 L 24.328125 26.6875 L 6.15625 26.6875 L 6.15625 -52.671875 L 24.125 -52.671875 L 24.125 -46.71875 L 24.328125 -46.71875 C 28.847656 -51.707031 34.597656 -54.203125 41.578125 -54.203125 C 49.179688 -54.203125 55.445312 -51.515625 60.375 -46.140625 Z M 44.921875 -17.453125 C 47.285156 -19.773438 48.46875 -22.75 48.46875 -26.375 C 48.46875 -30.007812 47.335938 -32.972656 45.078125 -35.265625 C 42.816406 -37.554688 39.835938 -38.703125 36.140625 -38.703125 C 32.578125 -38.703125 29.648438 -37.535156 27.359375 -35.203125 C 25.066406 -32.878906 23.921875 -29.941406 23.921875 -26.390625 C 23.921875 -22.753906 25.097656 -19.773438 27.453125 -17.453125 C 29.816406 -15.128906 32.710938 -13.96875 36.140625 -13.96875 C 39.628906 -13.96875 42.554688 -15.128906 44.921875 -17.453125 Z M 44.921875 -17.453125 "/></g></g></g><g fill="#000000" fill-opacity="1"><g transform="translate(151.519906, 135.617766)"><g><path d="M 6.15625 0 L 6.15625 -52.671875 L 24.328125 -52.671875 L 24.328125 -45.078125 L 24.53125 -45.078125 C 24.675781 -45.347656 24.898438 -45.6875 25.203125 -46.09375 C 25.515625 -46.507812 26.179688 -47.226562 27.203125 -48.25 C 28.234375 -49.28125 29.328125 -50.207031 30.484375 -51.03125 C 31.648438 -51.851562 33.15625 -52.585938 35 -53.234375 C 36.851562 -53.878906 38.738281 -54.203125 40.65625 -54.203125 C 42.644531 -54.203125 44.597656 -53.925781 46.515625 -53.375 C 48.429688 -52.832031 49.832031 -52.289062 50.71875 -51.75 L 52.15625 -50.921875 L 44.5625 -35.53125 C 42.300781 -37.445312 39.148438 -38.40625 35.109375 -38.40625 C 32.921875 -38.40625 31.039062 -37.925781 29.46875 -36.96875 C 27.894531 -36.007812 26.78125 -34.84375 26.125 -33.46875 C 25.476562 -32.101562 25.015625 -30.941406 24.734375 -29.984375 C 24.460938 -29.023438 24.328125 -28.269531 24.328125 -27.71875 L 24.328125 0 Z M 6.15625 0 "/></g></g></g><g fill="#000000" fill-opacity="1"><g transform="translate(192.989413, 135.617766)"><g><path d="M 7.90625 -82.03125 C 10.03125 -84.15625 12.5625 -85.21875 15.5 -85.21875 C 18.445312 -85.21875 20.976562 -84.15625 23.09375 -82.03125 C 25.21875 -79.914062 26.28125 -77.382812 26.28125 -74.4375 C 26.28125 -71.488281 25.21875 -68.953125 23.09375 -66.828125 C 20.976562 -64.710938 18.445312 -63.65625 15.5 -63.65625 C 12.5625 -63.65625 10.03125 -64.710938 7.90625 -66.828125 C 5.78125 -68.953125 4.71875 -71.488281 4.71875 -74.4375 C 4.71875 -77.382812 5.78125 -79.914062 7.90625 -82.03125 Z M 6.15625 -52.671875 L 6.15625 0 L 24.328125 0 L 24.328125 -52.671875 Z M 6.15625 -52.671875 "/></g></g></g><g fill="#000000" fill-opacity="1"><g transform="translate(214.338695, 135.617766)"><g><path d="M 6.15625 0 L 6.15625 -52.671875 L 24.328125 -52.671875 L 24.328125 -47.125 L 24.53125 -47.125 C 29.257812 -51.84375 34.289062 -54.203125 39.625 -54.203125 C 43.457031 -54.203125 47.050781 -53.414062 50.40625 -51.84375 C 53.757812 -50.269531 56.296875 -47.84375 58.015625 -44.5625 C 63.347656 -50.988281 69.164062 -54.203125 75.46875 -54.203125 C 81.082031 -54.203125 85.90625 -52.628906 89.9375 -49.484375 C 93.976562 -46.335938 96 -41.410156 96 -34.703125 L 96 0 L 77.828125 0 L 77.828125 -29.78125 C 77.828125 -32.582031 77.054688 -34.921875 75.515625 -36.796875 C 73.972656 -38.679688 71.660156 -39.625 68.578125 -39.625 C 65.910156 -39.625 63.875 -38.820312 62.46875 -37.21875 C 61.070312 -35.613281 60.304688 -33.679688 60.171875 -31.421875 L 60.171875 0 L 42 0 L 42 -29.78125 C 42 -32.582031 41.226562 -34.921875 39.6875 -36.796875 C 38.144531 -38.679688 35.832031 -39.625 32.75 -39.625 C 29.945312 -39.625 27.84375 -38.75 26.4375 -37 C 25.03125 -35.257812 24.328125 -33.191406 24.328125 -30.796875 L 24.328125 0 Z M 6.15625 0 "/></g></g></g><g fill="#000000" fill-opacity="1"><g transform="translate(305.800819, 135.617766)"><g><path d="M 9.75 -6.515625 C 4.820312 -11.890625 2.359375 -18.476562 2.359375 -26.28125 C 2.359375 -34.082031 4.820312 -40.6875 9.75 -46.09375 C 14.675781 -51.5 20.941406 -54.203125 28.546875 -54.203125 C 35.523438 -54.203125 41.273438 -52.015625 45.796875 -47.640625 L 45.796875 -52.671875 L 63.96875 -52.671875 L 63.96875 0 L 46 0 L 46 -5.953125 L 45.796875 -5.953125 C 41.273438 -0.953125 35.523438 1.546875 28.546875 1.546875 C 20.941406 1.546875 14.675781 -1.140625 9.75 -6.515625 Z M 25.203125 -35.203125 C 22.835938 -32.878906 21.65625 -29.90625 21.65625 -26.28125 C 21.65625 -22.65625 22.785156 -19.695312 25.046875 -17.40625 C 27.304688 -15.113281 30.285156 -13.96875 33.984375 -13.96875 C 37.546875 -13.96875 40.472656 -15.128906 42.765625 -17.453125 C 45.054688 -19.773438 46.203125 -22.71875 46.203125 -26.28125 C 46.203125 -29.90625 45.019531 -32.878906 42.65625 -35.203125 C 40.300781 -37.535156 37.410156 -38.703125 33.984375 -38.703125 C 30.492188 -38.703125 27.566406 -37.535156 25.203125 -35.203125 Z M 25.203125 -35.203125 "/></g></g></g><g fill="#000000" fill-opacity="1"><g transform="translate(366.261377, 135.617766)"><g><path d="M 17.859375 -21.96875 C 21.148438 -21.96875 23.941406 -20.820312 26.234375 -18.53125 C 28.523438 -16.238281 29.671875 -13.453125 29.671875 -10.171875 C 29.671875 -6.953125 28.523438 -4.191406 26.234375 -1.890625 C 23.941406 0.398438 21.148438 1.546875 17.859375 1.546875 C 14.648438 1.546875 11.894531 0.398438 9.59375 -1.890625 C 7.300781 -4.191406 6.15625 -6.953125 6.15625 -10.171875 C 6.15625 -13.453125 7.300781 -16.238281 9.59375 -18.53125 C 11.894531 -20.820312 14.648438 -21.96875 17.859375 -21.96875 Z M 17.859375 -21.96875 "/></g></g></g><g fill="#000000" fill-opacity="1"><g transform="translate(201.326919, 163.50582)"><g><path d="M 6.90625 -11.015625 C 7.832031 -11.015625 8.675781 -10.773438 9.4375 -10.296875 C 10.195312 -9.816406 10.789062 -9.148438 11.21875 -8.296875 C 11.65625 -7.441406 11.875 -6.476562 11.875 -5.40625 C 11.875 -4.332031 11.65625 -3.375 11.21875 -2.53125 C 10.789062 -1.6875 10.195312 -1.019531 9.4375 -0.53125 C 8.675781 -0.0507812 7.84375 0.1875 6.9375 0.1875 C 6.21875 0.1875 5.546875 0.03125 4.921875 -0.28125 C 4.304688 -0.601562 3.804688 -0.992188 3.421875 -1.453125 L 3.421875 3.140625 C 3.421875 3.410156 3.328125 3.640625 3.140625 3.828125 C 2.960938 4.023438 2.726562 4.125 2.4375 4.125 C 2.164062 4.125 1.9375 4.03125 1.75 3.84375 C 1.5625 3.664062 1.46875 3.429688 1.46875 3.140625 L 1.46875 -9.859375 C 1.46875 -10.140625 1.554688 -10.375 1.734375 -10.5625 C 1.910156 -10.757812 2.144531 -10.859375 2.4375 -10.859375 C 2.726562 -10.859375 2.960938 -10.757812 3.140625 -10.5625 C 3.328125 -10.375 3.421875 -10.140625 3.421875 -9.859375 L 3.421875 -9.25 C 3.753906 -9.738281 4.238281 -10.15625 4.875 -10.5 C 5.507812 -10.84375 6.1875 -11.015625 6.90625 -11.015625 Z M 6.671875 -1.625 C 7.304688 -1.625 7.878906 -1.789062 8.390625 -2.125 C 8.898438 -2.457031 9.296875 -2.910156 9.578125 -3.484375 C 9.859375 -4.054688 10 -4.695312 10 -5.40625 C 10 -6.125 9.859375 -6.769531 9.578125 -7.34375 C 9.296875 -7.914062 8.898438 -8.363281 8.390625 -8.6875 C 7.878906 -9.019531 7.304688 -9.1875 6.671875 -9.1875 C 6.023438 -9.1875 5.445312 -9.023438 4.9375 -8.703125 C 4.425781 -8.378906 4.03125 -7.925781 3.75 -7.34375 C 3.46875 -6.769531 3.328125 -6.125 3.328125 -5.40625 C 3.328125 -4.695312 3.46875 -4.050781 3.75 -3.46875 C 4.03125 -2.894531 4.425781 -2.441406 4.9375 -2.109375 C 5.445312 -1.785156 6.023438 -1.625 6.671875 -1.625 Z M 6.671875 -1.625 "/></g></g></g><g fill="#000000" fill-opacity="1"><g transform="translate(227.481875, 163.50582)"><g><path d="M 10.25 -10.96875 C 10.53125 -10.96875 10.765625 -10.875 10.953125 -10.6875 C 11.140625 -10.5 11.234375 -10.253906 11.234375 -9.953125 L 11.234375 -0.984375 C 11.234375 -0.710938 11.140625 -0.476562 10.953125 -0.28125 C 10.765625 -0.09375 10.53125 0 10.25 0 C 9.957031 0 9.722656 -0.09375 9.546875 -0.28125 C 9.367188 -0.46875 9.28125 -0.703125 9.28125 -0.984375 L 9.28125 -1.53125 C 8.914062 -1.050781 8.421875 -0.640625 7.796875 -0.296875 C 7.179688 0.0351562 6.515625 0.203125 5.796875 0.203125 C 4.867188 0.203125 4.019531 -0.0351562 3.25 -0.515625 C 2.488281 -0.992188 1.890625 -1.664062 1.453125 -2.53125 C 1.023438 -3.394531 0.8125 -4.363281 0.8125 -5.4375 C 0.8125 -6.507812 1.023438 -7.472656 1.453125 -8.328125 C 1.890625 -9.191406 2.484375 -9.863281 3.234375 -10.34375 C 3.992188 -10.832031 4.832031 -11.078125 5.75 -11.078125 C 6.476562 -11.078125 7.15625 -10.921875 7.78125 -10.609375 C 8.40625 -10.304688 8.90625 -9.921875 9.28125 -9.453125 L 9.28125 -9.953125 C 9.28125 -10.242188 9.367188 -10.484375 9.546875 -10.671875 C 9.722656 -10.867188 9.957031 -10.96875 10.25 -10.96875 Z M 6.03125 -1.609375 C 6.675781 -1.609375 7.25 -1.773438 7.75 -2.109375 C 8.257812 -2.441406 8.65625 -2.894531 8.9375 -3.46875 C 9.21875 -4.050781 9.359375 -4.707031 9.359375 -5.4375 C 9.359375 -6.144531 9.21875 -6.785156 8.9375 -7.359375 C 8.65625 -7.941406 8.257812 -8.398438 7.75 -8.734375 C 7.25 -9.078125 6.675781 -9.25 6.03125 -9.25 C 5.382812 -9.25 4.804688 -9.082031 4.296875 -8.75 C 3.796875 -8.425781 3.40625 -7.972656 3.125 -7.390625 C 2.84375 -6.816406 2.703125 -6.164062 2.703125 -5.4375 C 2.703125 -4.707031 2.84375 -4.050781 3.125 -3.46875 C 3.40625 -2.894531 3.796875 -2.441406 4.296875 -2.109375 C 4.804688 -1.773438 5.382812 -1.609375 6.03125 -1.609375 Z M 6.03125 -1.609375 "/></g></g></g><g fill="#000000" fill-opacity="1"><g transform="translate(253.636831, 163.50582)"><g><path d="M 10.515625 -10.96875 C 10.804688 -10.96875 11.039062 -10.875 11.21875 -10.6875 C 11.40625 -10.5 11.5 -10.253906 11.5 -9.953125 L 11.5 -0.875 C 11.5 0.25 11.257812 1.1875 10.78125 1.9375 C 10.3125 2.6875 9.671875 3.238281 8.859375 3.59375 C 8.046875 3.945312 7.128906 4.125 6.109375 4.125 C 5.554688 4.125 4.910156 4.023438 4.171875 3.828125 C 3.441406 3.640625 2.972656 3.445312 2.765625 3.25 C 2.335938 3.019531 2.125 2.742188 2.125 2.421875 C 2.125 2.335938 2.148438 2.226562 2.203125 2.09375 C 2.359375 1.738281 2.613281 1.5625 2.96875 1.5625 C 3.15625 1.5625 3.347656 1.601562 3.546875 1.6875 C 4.648438 2.113281 5.515625 2.328125 6.140625 2.328125 C 7.234375 2.328125 8.070312 2.0625 8.65625 1.53125 C 9.25 1.007812 9.546875 0.285156 9.546875 -0.640625 L 9.546875 -1.75 C 9.253906 -1.21875 8.765625 -0.757812 8.078125 -0.375 C 7.398438 0.0078125 6.679688 0.203125 5.921875 0.203125 C 4.972656 0.203125 4.101562 -0.0351562 3.3125 -0.515625 C 2.53125 -0.992188 1.914062 -1.664062 1.46875 -2.53125 C 1.03125 -3.394531 0.8125 -4.363281 0.8125 -5.4375 C 0.8125 -6.507812 1.03125 -7.472656 1.46875 -8.328125 C 1.914062 -9.191406 2.53125 -9.863281 3.3125 -10.34375 C 4.09375 -10.832031 4.953125 -11.078125 5.890625 -11.078125 C 6.640625 -11.078125 7.34375 -10.898438 8 -10.546875 C 8.65625 -10.203125 9.171875 -9.785156 9.546875 -9.296875 L 9.546875 -9.953125 C 9.546875 -10.242188 9.632812 -10.484375 9.8125 -10.671875 C 9.988281 -10.867188 10.222656 -10.96875 10.515625 -10.96875 Z M 6.15625 -1.609375 C 6.832031 -1.609375 7.429688 -1.769531 7.953125 -2.09375 C 8.472656 -2.414062 8.878906 -2.867188 9.171875 -3.453125 C 9.472656 -4.046875 9.625 -4.707031 9.625 -5.4375 C 9.625 -6.164062 9.472656 -6.816406 9.171875 -7.390625 C 8.878906 -7.972656 8.472656 -8.425781 7.953125 -8.75 C 7.429688 -9.082031 6.832031 -9.25 6.15625 -9.25 C 5.5 -9.25 4.90625 -9.082031 4.375 -8.75 C 3.851562 -8.425781 3.441406 -7.96875 3.140625 -7.375 C 2.847656 -6.789062 2.703125 -6.144531 2.703125 -5.4375 C 2.703125 -4.71875 2.847656 -4.066406 3.140625 -3.484375 C 3.441406 -2.898438 3.851562 -2.441406 4.375 -2.109375 C 4.90625 -1.773438 5.5 -1.609375 6.15625 -1.609375 Z M 6.15625 -1.609375 "/></g></g></g><g fill="#000000" fill-opacity="1"><g transform="translate(280.06027, 163.50582)"><g><path d="M 10.96875 -5.828125 C 10.957031 -5.578125 10.851562 -5.363281 10.65625 -5.1875 C 10.46875 -5.019531 10.242188 -4.9375 9.984375 -4.9375 L 2.703125 -4.9375 C 2.796875 -3.925781 3.175781 -3.117188 3.84375 -2.515625 C 4.519531 -1.910156 5.335938 -1.609375 6.296875 -1.609375 C 6.960938 -1.609375 7.5 -1.703125 7.90625 -1.890625 C 8.320312 -2.085938 8.6875 -2.335938 9 -2.640625 C 9.207031 -2.765625 9.410156 -2.828125 9.609375 -2.828125 C 9.835938 -2.828125 10.03125 -2.742188 10.1875 -2.578125 C 10.351562 -2.410156 10.4375 -2.21875 10.4375 -2 C 10.4375 -1.707031 10.296875 -1.445312 10.015625 -1.21875 C 9.617188 -0.820312 9.085938 -0.484375 8.421875 -0.203125 C 7.765625 0.0664062 7.09375 0.203125 6.40625 0.203125 C 5.289062 0.203125 4.304688 -0.03125 3.453125 -0.5 C 2.609375 -0.96875 1.957031 -1.617188 1.5 -2.453125 C 1.039062 -3.296875 0.8125 -4.25 0.8125 -5.3125 C 0.8125 -6.46875 1.046875 -7.484375 1.515625 -8.359375 C 1.992188 -9.234375 2.617188 -9.90625 3.390625 -10.375 C 4.171875 -10.84375 5.007812 -11.078125 5.90625 -11.078125 C 6.789062 -11.078125 7.617188 -10.847656 8.390625 -10.390625 C 9.160156 -9.929688 9.78125 -9.300781 10.25 -8.5 C 10.71875 -7.707031 10.957031 -6.816406 10.96875 -5.828125 Z M 5.90625 -9.25 C 5.132812 -9.25 4.46875 -9.03125 3.90625 -8.59375 C 3.34375 -8.164062 2.96875 -7.5 2.78125 -6.59375 L 8.875 -6.59375 L 8.875 -6.75 C 8.8125 -7.476562 8.484375 -8.078125 7.890625 -8.546875 C 7.304688 -9.015625 6.644531 -9.25 5.90625 -9.25 Z M 5.90625 -9.25 "/></g></g></g></svg>