<svg xmlns="http://www.w3.org/2000/svg" xmlns:xlink="http://www.w3.org/1999/xlink" width="492" zoomAndPan="magnify" viewBox="0 0 369 525.750006" height="701" preserveAspectRatio="xMidYMid meet" version="1.0"><defs><g/><clipPath id="3585c0e19e"><path d="M 22.566406 116.933594 L 332.941406 116.933594 L 332.941406 427.308594 L 22.566406 427.308594 Z M 22.566406 116.933594 " clip-rule="nonzero"/></clipPath><clipPath id="87cdae69a0"><path d="M 177.753906 116.933594 C 92.046875 116.933594 22.566406 186.414062 22.566406 272.121094 C 22.566406 357.828125 92.046875 427.308594 177.753906 427.308594 C 263.460938 427.308594 332.941406 357.828125 332.941406 272.121094 C 332.941406 186.414062 263.460938 116.933594 177.753906 116.933594 Z M 177.753906 116.933594 " clip-rule="nonzero"/></clipPath></defs><g clip-path="url(#3585c0e19e)"><g clip-path="url(#87cdae69a0)"><path fill="#9fc7aa" d="M 22.566406 116.933594 L 332.941406 116.933594 L 332.941406 427.308594 L 22.566406 427.308594 Z M 22.566406 116.933594 " fill-opacity="1" fill-rule="nonzero"/></g></g><g fill="#f8f7f0" fill-opacity="1"><g transform="translate(79.910463, 362.006971)"><g><path d="M 13.777344 0 L 54.453125 0 L 54.453125 -176.808594 C 49.203125 -153.1875 31.820312 -144.988281 13.777344 -142.691406 Z M 13.777344 0 "/></g></g></g><g fill="#f8f7f0" fill-opacity="1"><g transform="translate(115.335538, 362.006971)"><g/></g></g><g fill="#f8f7f0" fill-opacity="1"><g transform="translate(153.384802, 362.006971)"><g><path d="M 13.777344 0 L 54.453125 0 L 54.453125 -172.871094 L 13.777344 -172.871094 Z M 75.773438 -69.542969 C 75.773438 -69.542969 131.539062 -64.949219 131.539062 -121.042969 C 131.539062 -172.871094 69.542969 -172.871094 69.542969 -172.871094 C 69.542969 -172.871094 97.425781 -171.230469 97.425781 -121.371094 C 97.425781 -72.167969 75.773438 -69.542969 75.773438 -69.542969 Z M 75.773438 -69.542969 "/></g></g></g></svg>