<?xml version="1.0" encoding="utf-8"?>
<!-- Generator: Adobe Illustrator 28.3.0, SVG Export Plug-In . SVG Version: 6.00 Build 0)  -->
<svg version="1.1" id="Layer_1" xmlns="http://www.w3.org/2000/svg" xmlns:xlink="http://www.w3.org/1999/xlink" x="0px" y="0px"
	 viewBox="0 0 421.9 424" style="enable-background:new 0 0 421.9 424;" xml:space="preserve">
<style type="text/css">
	.st0{clip-path:url(#SVGID_00000171687485707152444130000009736937269861409690_);}
	.st1{clip-path:url(#SVGID_00000128486193276723148580000011271587435685321363_);}
	.st2{fill:#9FC7AA;}
	.st3{fill:#F8F7F0;}
</style>
<g>
	<defs>
		<rect id="SVGID_1_" x="3.7" y="4.9" width="413.8" height="413.8"/>
	</defs>
	<clipPath id="SVGID_00000111173104937428114470000006843456145696806549_">
		<use xlink:href="#SVGID_1_"  style="overflow:visible;"/>
	</clipPath>
	<g style="clip-path:url(#SVGID_00000111173104937428114470000006843456145696806549_);">
		<g>
			<defs>
				<circle id="SVGID_00000147903574699021387760000000212667665571569289_" cx="210.7" cy="211.8" r="206.9"/>
			</defs>
			<clipPath id="SVGID_00000026134098343077774360000014352225000503333037_">
				<use xlink:href="#SVGID_00000147903574699021387760000000212667665571569289_"  style="overflow:visible;"/>
			</clipPath>
			<g style="clip-path:url(#SVGID_00000026134098343077774360000014352225000503333037_);">
				<path class="st2" d="M3.7,4.9h413.8v413.8H3.7V4.9z"/>
			</g>
		</g>
	</g>
</g>
<g>
	<g transform="translate(79.910463, 362.006971)">
		<g>
			<path class="st3" d="M18.7-30.3h54.2v-235.7c-7,31.5-30.2,42.4-54.2,45.5V-30.3z"/>
		</g>
	</g>
</g>
<g>
	<g transform="translate(115.335538, 362.006971)">
	</g>
</g>
<g>
	<g transform="translate(153.384802, 362.006971)">
		<g>
			<path class="st3" d="M43.2-30.3h54.2v-230.5H43.2V-30.3z M125.8-123.1c0,0,74.4,6.1,74.4-68.7c0-69.1-82.7-69.1-82.7-69.1
				s37.2,2.2,37.2,68.7C154.7-126.6,125.8-123.1,125.8-123.1z"/>
		</g>
	</g>
</g>
</svg>
