<?xml version="1.0" encoding="utf-8"?>
<!-- Generator: Adobe Illustrator 28.3.0, SVG Export Plug-In . SVG Version: 6.00 Build 0)  -->
<svg version="1.1" id="Layer_1" xmlns="http://www.w3.org/2000/svg" xmlns:xlink="http://www.w3.org/1999/xlink" x="0px" y="0px"
	 viewBox="0 0 443.2 276" style="enable-background:new 0 0 443.2 276;" xml:space="preserve">
<style type="text/css">
	.st0{clip-path:url(#SVGID_00000170963313294052252810000014549151911354996904_);}
	.st1{clip-path:url(#SVGID_00000047739324374812837360000009287594553416205496_);}
	.st2{fill:#9FC7AA;}
</style>
<g>
	<g>
		<g>
			<defs>
				<rect id="SVGID_1_" x="2.2" y="0.5" width="273.7" height="273.7"/>
			</defs>
			<clipPath id="SVGID_00000081616700418227599340000009342587301915078300_">
				<use xlink:href="#SVGID_1_"  style="overflow:visible;"/>
			</clipPath>
			<g style="clip-path:url(#SVGID_00000081616700418227599340000009342587301915078300_);">
				<g>
					<g>
						<defs>
							<path id="SVGID_00000096774897825874122860000007350989042584345219_" d="M139.1,0.5C63.5,0.5,2.3,61.8,2.3,137.3
								c0,75.6,61.3,136.8,136.8,136.8c75.6,0,136.8-61.3,136.8-136.8S214.6,0.5,139.1,0.5z"/>
						</defs>
						<clipPath id="SVGID_00000178898274060209149760000001188505419998973855_">
							<use xlink:href="#SVGID_00000096774897825874122860000007350989042584345219_"  style="overflow:visible;"/>
						</clipPath>
						<g style="clip-path:url(#SVGID_00000178898274060209149760000001188505419998973855_);">
							<path class="st2" d="M2.2,0.5h273.7v273.7H2.2V0.5z"/>
						</g>
					</g>
				</g>
			</g>
		</g>
	</g>
	<g>
		<g transform="translate(95.445424, 129.864551)">
			<g>
				<path d="M29.5-16.4c6.4,6.9,9.6,15.5,9.6,25.5s-3.2,18.6-9.6,25.6S15,45.2,5.2,45.2c-9,0-16.4-2.8-22.3-8.5v41h-23.4V-24.8h23.2
					v7.7h0.2c5.8-6.5,13.3-9.7,22.3-9.7C15.1-26.8,23.2-23.3,29.5-16.4z M9.6,20.7c3.1-3,4.6-6.9,4.6-11.5c0-4.7-1.5-8.5-4.4-11.5
					S3-6.8-1.7-6.8c-4.6,0-8.4,1.5-11.4,4.5s-4.4,6.8-4.4,11.4c0,4.7,1.5,8.6,4.6,11.6s6.8,4.5,11.2,4.5C2.7,25.2,6.5,23.7,9.6,20.7
					z"/>
			</g>
		</g>
	</g>
	<g>
		<g transform="translate(154.059651, 129.864551)">
			<g>
				<path d="M-21,43.3v-68.1H2.5v9.8h0.3c0.2-0.3,0.5-0.8,0.9-1.3s1.3-1.5,2.6-2.8c1.3-1.3,2.8-2.5,4.2-3.6c1.5-1.1,3.5-2,5.9-2.9
					c2.4-0.8,4.8-1.3,7.3-1.3c2.6,0,5.1,0.4,7.6,1.1s4.3,1.4,5.4,2.1l1.9,1.1L28.8-2.7c-2.9-2.5-7-3.7-12.2-3.7
					c-2.8,0-5.3,0.6-7.3,1.9C7.3-3.3,5.8-1.8,5,0S3.6,3.3,3.2,4.5C2.9,5.7,2.7,6.7,2.7,7.4v35.8L-21,43.3L-21,43.3z"/>
			</g>
		</g>
	</g>
	<g>
		<g transform="translate(194.263536, 129.864551)">
			<g>
				<path d="M-5.3-62.7c2.8-2.8,6-4.1,9.8-4.1s7.1,1.4,9.8,4.1c2.7,2.7,4.1,6,4.1,9.8s-1.4,7.1-4.1,9.8S8.3-39,4.5-39
					s-7.1-1.4-9.8-4.1c-2.7-2.8-4.1-6-4.1-9.8C-9.4-56.7-8.1-60-5.3-62.7z M-7.6-24.8v68.1h23.5v-68.1H-7.6z"/>
			</g>
		</g>
	</g>
	<g>
		<g transform="translate(214.96241, 129.864551)">
			<g>
				<path d="M-0.7,43.3v-68.1h23.5v7.2h0.3c6.1-6.1,12.6-9.2,19.5-9.2c5,0,9.6,1,13.9,3.1c4.3,2,7.6,5.2,9.8,9.4
					c6.9-8.3,14.4-12.5,22.6-12.5c7.2,0,13.5,2,18.7,6.1s7.8,10.4,7.8,19.1v44.9H91.9V4.8c0-3.6-1-6.7-3-9.1s-5-3.6-9-3.6
					c-3.4,0-6.1,1-7.9,3.1c-1.8,2.1-2.8,4.6-3,7.5v40.6H45.5V4.8c0-3.6-1-6.7-3-9.1s-5-3.6-8.9-3.6c-3.6,0-6.3,1.1-8.2,3.4
					c-1.8,2.3-2.7,4.9-2.7,8v39.8H-0.7z"/>
			</g>
		</g>
	</g>
	<g>
		<g transform="translate(303.630297, 129.864551)">
			<g>
				<path d="M33.5,34.9c-6.4-6.9-9.6-15.5-9.6-25.5c0-10.1,3.2-18.6,9.6-25.6S48-26.7,57.8-26.7c9,0,16.4,2.8,22.3,8.5v-6.5h23.5
					v68.1H80.4v-7.7h-0.2c-5.8,6.5-13.3,9.7-22.3,9.7C48,45.3,39.9,41.8,33.5,34.9z M53.5-2.2c-3,3-4.6,6.8-4.6,11.5
					s1.5,8.5,4.4,11.5s6.8,4.4,11.5,4.4c4.6,0,8.4-1.5,11.3-4.5c3-3,4.5-6.8,4.5-11.4c0-4.7-1.5-8.5-4.6-11.5c-3-3-6.8-4.5-11.2-4.5
					C60.3-6.7,56.5-5.2,53.5-2.2z"/>
			</g>
		</g>
	</g>
	<g>
		<g transform="translate(362.244519, 129.864551)">
			<g>
				<path d="M63.5,14.9c4.2,0,7.9,1.5,10.8,4.5c3,3,4.5,6.6,4.5,10.8s-1.5,7.7-4.5,10.7s-6.6,4.4-10.8,4.4s-7.7-1.5-10.7-4.4
					c-3-3-4.4-6.5-4.4-10.7s1.5-7.8,4.4-10.8C55.8,16.4,59.4,14.9,63.5,14.9z"/>
			</g>
		</g>
	</g>
	<g>
		<g transform="translate(277.95158, 153.002789)">
			<g>
				<path d="M16.8,57.9v-9.6c0.2,0.9,2.2,3.1,5.3,3.1c3.8,0,6.6-2.8,6.6-7.2S25.9,37,22.2,37c-3,0-5.1,2-5.3,3v-2.6h-2.7v20.5H16.8z
					 M26.1,44.2c0,3.1-2.1,5-4.5,5c-2.7,0-4.8-2-4.8-5s2.1-5,4.8-5C24,39.2,26.1,41.1,26.1,44.2z"/>
			</g>
		</g>
	</g>
	<g>
		<g transform="translate(300.527901, 153.002789)">
			<g>
				<path d="M32.6,51h2.6V37.4h-2.6V40c-0.2-1-2.1-3-5.1-3c-3.8,0-6.8,2.8-6.8,7.2s3,7.2,6.8,7.2c3,0,4.9-2.3,5.2-3.1L32.6,51
					L32.6,51z M23.3,44.2c0-3.1,2.3-5,4.7-5c2.6,0,4.6,2,4.6,5s-1.9,5-4.6,5C25.6,49.2,23.3,47.3,23.3,44.2z"/>
			</g>
		</g>
	</g>
	<g>
		<g transform="translate(322.979842, 153.002789)">
			<g>
				<path d="M35.6,58.3c4,0,7.1-2.4,7.1-6.9v-14h-2.6V40c-0.2-1-2.1-3-5.1-3c-3.8,0-6.8,2.8-6.8,7.2s3,7.2,6.8,7.2
					c3,0,4.9-2.3,5.2-3.1v2.9c0,2.7-1.7,4.9-4.6,4.9c-3.1,0-4.2-1.3-4.8-2.1L29,55.7C30,57.2,32.3,58.3,35.6,58.3z M30.8,44.2
					c0-3.1,2.3-5,4.7-5c2.6,0,4.6,2,4.6,5s-1.9,5-4.6,5C33.1,49.2,30.8,47.3,30.8,44.2z"/>
			</g>
		</g>
	</g>
	<g>
		<g transform="translate(345.531292, 153.002789)">
			<g>
				<path d="M38.3,44.7h10.8c0-0.2,0.1-0.7,0.1-0.9c0-4.2-2.6-6.8-6.6-6.8c-4.4,0-6.9,3.1-6.9,7.1c0,4.3,2.7,7.4,7.1,7.4
					c3.2,0,4.8-1,6-2.7l-1.4-1.6c-0.5,0.9-1.9,2.3-4.4,2.3C39.9,49.3,38.3,47.2,38.3,44.7z M46.6,42.6h-8.2c0.1-1.5,1.2-3.6,4.2-3.6
					C45.5,39,46.5,41.2,46.6,42.6z"/>
			</g>
		</g>
	</g>
</g>
</svg>
