<svg xmlns="http://www.w3.org/2000/svg" xmlns:xlink="http://www.w3.org/1999/xlink" width="656" zoomAndPan="magnify" viewBox="0 0 492 207.000001" height="276" preserveAspectRatio="xMidYMid meet" version="1.0"><defs><g/><clipPath id="d8c37fcb34"><path d="M 61.886719 0.363281 L 267.144531 0.363281 L 267.144531 205.625 L 61.886719 205.625 Z M 61.886719 0.363281 " clip-rule="nonzero"/></clipPath><clipPath id="e66aecbbaf"><path d="M 164.515625 0.363281 C 107.835938 0.363281 61.886719 46.3125 61.886719 102.996094 C 61.886719 159.675781 107.835938 205.625 164.515625 205.625 C 221.199219 205.625 267.144531 159.675781 267.144531 102.996094 C 267.144531 46.3125 221.199219 0.363281 164.515625 0.363281 Z M 164.515625 0.363281 " clip-rule="nonzero"/></clipPath></defs><g clip-path="url(#d8c37fcb34)"><g clip-path="url(#e66aecbbaf)"><path fill="#9fc7aa" d="M 61.886719 0.363281 L 267.144531 0.363281 L 267.144531 205.625 L 61.886719 205.625 Z M 61.886719 0.363281 " fill-opacity="1" fill-rule="nonzero"/></g></g><g fill="#000000" fill-opacity="1"><g transform="translate(95.445424, 129.864551)"><g><path d="M 58.515625 -44.734375 C 63.296875 -39.523438 65.6875 -33.140625 65.6875 -25.578125 C 65.6875 -18.015625 63.296875 -11.609375 58.515625 -6.359375 C 53.734375 -1.117188 47.660156 1.5 40.296875 1.5 C 33.535156 1.5 27.960938 -0.625 23.578125 -4.875 L 23.578125 25.875 L 5.96875 25.875 L 5.96875 -51.046875 L 23.390625 -51.046875 L 23.390625 -45.28125 L 23.578125 -45.28125 C 27.960938 -50.125 33.535156 -52.546875 40.296875 -52.546875 C 47.660156 -52.546875 53.734375 -49.941406 58.515625 -44.734375 Z M 43.53125 -16.90625 C 45.820312 -19.164062 46.96875 -22.050781 46.96875 -25.5625 C 46.96875 -29.082031 45.875 -31.953125 43.6875 -34.171875 C 41.5 -36.398438 38.613281 -37.515625 35.03125 -37.515625 C 31.582031 -37.515625 28.742188 -36.382812 26.515625 -34.125 C 24.296875 -31.875 23.1875 -29.023438 23.1875 -25.578125 C 23.1875 -22.054688 24.328125 -19.164062 26.609375 -16.90625 C 28.898438 -14.65625 31.707031 -13.53125 35.03125 -13.53125 C 38.414062 -13.53125 41.25 -14.65625 43.53125 -16.90625 Z M 43.53125 -16.90625 "/></g></g></g><g fill="#000000" fill-opacity="1"><g transform="translate(154.059651, 129.864551)"><g><path d="M 5.96875 0 L 5.96875 -51.046875 L 23.578125 -51.046875 L 23.578125 -43.6875 L 23.78125 -43.6875 C 23.914062 -43.945312 24.128906 -44.273438 24.421875 -44.671875 C 24.722656 -45.078125 25.367188 -45.773438 26.359375 -46.765625 C 27.359375 -47.765625 28.421875 -48.660156 29.546875 -49.453125 C 30.679688 -50.253906 32.144531 -50.96875 33.9375 -51.59375 C 35.726562 -52.226562 37.550781 -52.546875 39.40625 -52.546875 C 41.332031 -52.546875 43.222656 -52.28125 45.078125 -51.75 C 46.929688 -51.21875 48.289062 -50.6875 49.15625 -50.15625 L 50.546875 -49.359375 L 43.1875 -34.4375 C 41 -36.289062 37.945312 -37.21875 34.03125 -37.21875 C 31.90625 -37.21875 30.078125 -36.753906 28.546875 -35.828125 C 27.023438 -34.898438 25.945312 -33.769531 25.3125 -32.4375 C 24.6875 -31.113281 24.238281 -29.988281 23.96875 -29.0625 C 23.707031 -28.132812 23.578125 -27.40625 23.578125 -26.875 L 23.578125 0 Z M 5.96875 0 "/></g></g></g><g fill="#000000" fill-opacity="1"><g transform="translate(194.263536, 129.864551)"><g><path d="M 7.65625 -79.5 C 9.71875 -81.5625 12.175781 -82.59375 15.03125 -82.59375 C 17.882812 -82.59375 20.335938 -81.5625 22.390625 -79.5 C 24.441406 -77.445312 25.46875 -74.992188 25.46875 -72.140625 C 25.46875 -69.296875 24.441406 -66.84375 22.390625 -64.78125 C 20.335938 -62.726562 17.882812 -61.703125 15.03125 -61.703125 C 12.175781 -61.703125 9.71875 -62.726562 7.65625 -64.78125 C 5.601562 -66.84375 4.578125 -69.296875 4.578125 -72.140625 C 4.578125 -74.992188 5.601562 -77.445312 7.65625 -79.5 Z M 5.96875 -51.046875 L 5.96875 0 L 23.578125 0 L 23.578125 -51.046875 Z M 5.96875 -51.046875 "/></g></g></g><g fill="#000000" fill-opacity="1"><g transform="translate(214.96241, 129.864551)"><g><path d="M 5.96875 0 L 5.96875 -51.046875 L 23.578125 -51.046875 L 23.578125 -45.671875 L 23.78125 -45.671875 C 28.363281 -50.253906 33.238281 -52.546875 38.40625 -52.546875 C 42.125 -52.546875 45.609375 -51.78125 48.859375 -50.25 C 52.109375 -48.726562 54.5625 -46.375 56.21875 -43.1875 C 61.394531 -49.425781 67.035156 -52.546875 73.140625 -52.546875 C 78.578125 -52.546875 83.253906 -51.019531 87.171875 -47.96875 C 91.085938 -44.914062 93.046875 -40.140625 93.046875 -33.640625 L 93.046875 0 L 75.4375 0 L 75.4375 -28.859375 C 75.4375 -31.578125 74.6875 -33.847656 73.1875 -35.671875 C 71.695312 -37.492188 69.457031 -38.40625 66.46875 -38.40625 C 63.882812 -38.40625 61.910156 -37.625 60.546875 -36.0625 C 59.191406 -34.507812 58.445312 -32.640625 58.3125 -30.453125 L 58.3125 0 L 40.703125 0 L 40.703125 -28.859375 C 40.703125 -31.578125 39.953125 -33.847656 38.453125 -35.671875 C 36.960938 -37.492188 34.726562 -38.40625 31.75 -38.40625 C 29.03125 -38.40625 26.988281 -37.5625 25.625 -35.875 C 24.257812 -34.1875 23.578125 -32.179688 23.578125 -29.859375 L 23.578125 0 Z M 5.96875 0 "/></g></g></g><g fill="#000000" fill-opacity="1"><g transform="translate(303.630297, 129.864551)"><g><path d="M 9.453125 -6.3125 C 4.671875 -11.519531 2.28125 -17.90625 2.28125 -25.46875 C 2.28125 -33.039062 4.671875 -39.445312 9.453125 -44.6875 C 14.234375 -49.925781 20.304688 -52.546875 27.671875 -52.546875 C 34.429688 -52.546875 40.003906 -50.421875 44.390625 -46.171875 L 44.390625 -51.046875 L 62 -51.046875 L 62 0 L 44.578125 0 L 44.578125 -5.765625 L 44.390625 -5.765625 C 40.003906 -0.921875 34.429688 1.5 27.671875 1.5 C 20.304688 1.5 14.234375 -1.101562 9.453125 -6.3125 Z M 24.421875 -34.125 C 22.140625 -31.875 21 -28.988281 21 -25.46875 C 21 -21.957031 22.09375 -19.085938 24.28125 -16.859375 C 26.46875 -14.640625 29.351562 -13.53125 32.9375 -13.53125 C 36.382812 -13.53125 39.21875 -14.65625 41.4375 -16.90625 C 43.664062 -19.164062 44.78125 -22.019531 44.78125 -25.46875 C 44.78125 -28.988281 43.632812 -31.875 41.34375 -34.125 C 39.0625 -36.382812 36.257812 -37.515625 32.9375 -37.515625 C 29.550781 -37.515625 26.710938 -36.382812 24.421875 -34.125 Z M 24.421875 -34.125 "/></g></g></g><g fill="#000000" fill-opacity="1"><g transform="translate(362.244519, 129.864551)"><g><path d="M 17.3125 -21.296875 C 20.5 -21.296875 23.203125 -20.179688 25.421875 -17.953125 C 27.648438 -15.734375 28.765625 -13.035156 28.765625 -9.859375 C 28.765625 -6.734375 27.648438 -4.054688 25.421875 -1.828125 C 23.203125 0.390625 20.5 1.5 17.3125 1.5 C 14.195312 1.5 11.523438 0.390625 9.296875 -1.828125 C 7.078125 -4.054688 5.96875 -6.734375 5.96875 -9.859375 C 5.96875 -13.035156 7.078125 -15.734375 9.296875 -17.953125 C 11.523438 -20.179688 14.195312 -21.296875 17.3125 -21.296875 Z M 17.3125 -21.296875 "/></g></g></g><g fill="#000000" fill-opacity="1"><g transform="translate(277.95158, 153.002789)"><g><path d="M 3.347656 5.175781 L 3.347656 -2.027344 C 3.484375 -1.355469 4.976562 0.296875 7.339844 0.296875 C 10.164062 0.296875 12.289062 -1.804688 12.289062 -5.101562 C 12.289062 -8.382812 10.210938 -10.511719 7.386719 -10.511719 C 5.113281 -10.511719 3.570312 -9.03125 3.382812 -8.246094 L 3.382812 -10.210938 L 1.378906 -10.210938 L 1.378906 5.175781 Z M 10.335938 -5.101562 C 10.335938 -2.796875 8.757812 -1.355469 6.953125 -1.355469 C 4.964844 -1.355469 3.382812 -2.824219 3.382812 -5.101562 C 3.382812 -7.363281 4.964844 -8.855469 6.953125 -8.855469 C 8.757812 -8.855469 10.335938 -7.402344 10.335938 -5.101562 Z M 10.335938 -5.101562 "/></g></g></g><g fill="#000000" fill-opacity="1"><g transform="translate(300.527901, 153.002789)"><g><path d="M 9.578125 0 L 11.503906 0 L 11.503906 -10.210938 L 9.566406 -10.210938 L 9.566406 -8.246094 C 9.378906 -8.980469 7.960938 -10.511719 5.710938 -10.511719 C 2.886719 -10.511719 0.632812 -8.382812 0.632812 -5.101562 C 0.632812 -1.804688 2.886719 0.296875 5.710938 0.296875 C 7.984375 0.296875 9.390625 -1.394531 9.578125 -2.027344 Z M 2.574219 -5.101562 C 2.574219 -7.402344 4.292969 -8.855469 6.105469 -8.855469 C 8.074219 -8.855469 9.527344 -7.363281 9.527344 -5.101562 C 9.527344 -2.824219 8.074219 -1.355469 6.105469 -1.355469 C 4.292969 -1.355469 2.574219 -2.796875 2.574219 -5.101562 Z M 2.574219 -5.101562 "/></g></g></g><g fill="#000000" fill-opacity="1"><g transform="translate(322.979842, 153.002789)"><g><path d="M 6.15625 5.460938 C 9.128906 5.460938 11.503906 3.667969 11.503906 0.285156 L 11.503906 -10.210938 L 9.566406 -10.210938 L 9.566406 -8.246094 C 9.378906 -8.980469 7.960938 -10.511719 5.710938 -10.511719 C 2.886719 -10.511719 0.632812 -8.382812 0.632812 -5.101562 C 0.632812 -1.804688 2.886719 0.296875 5.710938 0.296875 C 7.984375 0.296875 9.390625 -1.394531 9.578125 -2.027344 L 9.578125 0.160156 C 9.578125 2.203125 8.332031 3.804688 6.09375 3.804688 C 3.804688 3.804688 2.960938 2.859375 2.5 2.214844 L 1.167969 3.457031 C 2.003906 4.628906 3.71875 5.460938 6.15625 5.460938 Z M 2.574219 -5.101562 C 2.574219 -7.402344 4.292969 -8.855469 6.105469 -8.855469 C 8.074219 -8.855469 9.527344 -7.363281 9.527344 -5.101562 C 9.527344 -2.824219 8.074219 -1.355469 6.105469 -1.355469 C 4.292969 -1.355469 2.574219 -2.796875 2.574219 -5.101562 Z M 2.574219 -5.101562 "/></g></g></g><g fill="#000000" fill-opacity="1"><g transform="translate(345.531292, 153.002789)"><g><path d="M 2.5625 -4.714844 L 10.683594 -4.714844 C 10.695312 -4.839844 10.722656 -5.261719 10.722656 -5.398438 C 10.722656 -8.519531 8.78125 -10.511719 5.796875 -10.511719 C 2.523438 -10.511719 0.632812 -8.210938 0.632812 -5.222656 C 0.632812 -1.988281 2.636719 0.296875 5.933594 0.296875 C 8.320312 0.296875 9.566406 -0.472656 10.421875 -1.730469 L 9.390625 -2.960938 C 9.003906 -2.300781 7.972656 -1.257812 6.058594 -1.257812 C 3.742188 -1.257812 2.585938 -2.824219 2.5625 -4.714844 Z M 8.769531 -6.269531 L 2.636719 -6.269531 C 2.738281 -7.402344 3.546875 -8.96875 5.820312 -8.96875 C 7.984375 -8.96875 8.71875 -7.328125 8.769531 -6.269531 Z M 8.769531 -6.269531 "/></g></g></g></svg>